<svg width="320" height="354" viewBox="0 0 320 354" fill="none" xmlns="http://www.w3.org/2000/svg">
<path d="M158.188 71.6797C167.953 71.6797 174.594 71.3672 178.109 70.7422V71.2109C178.578 74.4922 179.984 80.0781 182.328 87.9688C184.75 95.8594 186.352 100.703 187.133 102.5L230.492 215.469C231.43 217.812 232.602 219.648 234.008 220.977C235.414 222.227 237.641 222.852 240.688 222.852C243.422 222.852 245.922 223.32 248.188 224.258C250.453 225.195 251.859 226.602 252.406 228.477C252.094 233.477 251.938 237.5 251.938 240.547C251.938 243.516 251.273 245.43 249.945 246.289C238.227 245.43 228.383 245 220.414 245C204.477 245 193.578 245.43 187.719 246.289C186.391 241.758 185.727 235.508 185.727 227.539C185.727 225.664 187.094 224.453 189.828 223.906C192.641 223.359 195.414 222.891 198.148 222.5C200.961 222.109 202.367 221.133 202.367 219.57C202.367 218.477 202.016 217.031 201.312 215.234L190.18 183.711H128.656L117.992 215.234C117.289 217.344 116.938 218.789 116.938 219.57C116.938 221.133 118.344 222.109 121.156 222.5C123.969 222.891 126.781 223.359 129.594 223.906C132.406 224.453 133.812 225.664 133.812 227.539C132.875 237.539 131.82 243.789 130.648 246.289C118.305 245.43 108.031 245 99.8281 245C95.0625 245 85.6875 245.43 71.7031 246.289C70.375 245.43 69.7109 243.516 69.7109 240.547C69.7109 237.5 69.9453 233.477 70.4141 228.477C70.9609 226.602 72.3281 225.195 74.5156 224.258C76.7031 223.32 79.1641 222.852 81.8984 222.852C84.9453 222.852 87.1719 222.227 88.5781 220.977C89.9844 219.648 91.1562 217.812 92.0938 215.469L135.453 100.156C136.078 98.4375 136.391 97.1484 136.391 96.2891C136.391 94.7266 135.57 93.7109 133.93 93.2422C132.289 92.6953 130.492 92.5 128.539 92.6562C126.664 92.8125 124.906 92.5781 123.266 91.9531C121.625 91.25 120.805 90.0391 120.805 88.3203C120.805 88.1641 120.883 87.7734 121.039 87.1484C122.133 78.3984 123.5 72.9297 125.141 70.7422C134.75 71.3672 145.766 71.6797 158.188 71.6797ZM159.711 97.8125C151.508 117.812 143.188 140.508 134.75 165.898H183.969C180.219 154.57 176.312 143.242 172.25 131.914C168.188 120.586 165.062 112.07 162.875 106.367L159.711 97.8125Z" fill="#804DEE"/>
<path d="M20.961 218.22L24.687 222.878L22.824 216.822C22.358 214.027 19.098 217.288 20.961 218.22ZM25.153 215.425C26.55 217.754 27.948 220.083 27.948 222.412C27.948 225.673 30.743 227.07 33.071 228.001C29.81 224.275 27.947 214.027 25.153 215.425ZM204.017 17.929C211.935 17.929 219.388 16.997 227.773 18.86C248.268 23.984 265.502 34.231 277.147 48.671L309.753 100.84C311.15 113.882 313.945 128.322 313.479 144.159C316.74 144.159 316.274 139.501 320 138.569C316.274 147.885 314.41 159.53 313.479 173.038C311.15 165.585 313.479 154.406 313.945 148.351C310.684 153.475 308.821 149.748 308.821 147.419C309.287 143.693 307.424 144.158 306.026 142.761C300.902 138.103 297.642 132.979 293.916 125.061C296.245 119.006 296.711 110.156 289.258 105.498C286.929 104.101 284.134 101.772 282.737 98.045C280.874 92.921 277.613 86.866 278.544 78.948C279.01 76.619 271.557 84.072 267.365 80.811C249.199 68.235 231.033 53.795 209.141 41.684C197.496 41.684 189.112 37.492 184.92 32.368C181.194 27.71 183.988 21.655 189.578 21.189C192.839 21.189 196.565 20.257 199.36 22.121C199.826 20.258 201.689 17.929 204.017 17.929ZM157.904 7.215L158.836 7.681C163.494 8.613 165.823 15.134 170.946 12.805C170.946 16.066 171.412 19.326 170.48 21.655C169.083 25.381 164.89 25.381 161.63 25.381C130.422 23.518 112.256 36.56 93.159 47.739C88.035 51 82.446 53.329 78.253 57.521C58.224 76.153 36.332 93.387 31.208 127.856L27.016 166.051C26.55 170.243 21.892 174.435 22.824 179.559L26.084 202.383C22.823 199.122 20.96 203.315 21.892 205.178C22.358 206.575 24.221 211.233 27.016 207.041C30.742 214.028 34.469 227.536 39.592 233.591C55.429 252.223 75.924 268.991 92.693 285.76C96.885 284.828 100.146 284.828 101.077 282.033C102.474 284.828 99.68 287.623 97.351 288.089C104.804 292.747 113.188 296.939 124.367 297.87C138.807 298.802 152.315 301.131 164.891 304.392C171.412 302.529 177.933 301.597 184.92 301.131C187.249 301.131 188.646 297.405 191.441 296.473L191.907 291.815C194.702 296.007 194.236 290.418 192.373 287.623C195.634 290.418 196.565 292.747 197.962 294.61C197.962 293.213 201.688 288.089 201.689 294.144L202.62 288.089C204.017 287.157 204.483 293.213 205.881 289.02C207.278 284.828 210.073 288.088 212.868 286.691C211.936 288.554 212.402 292.281 215.662 289.952L219.389 286.691C221.718 292.281 225.444 289.952 227.307 289.02C247.802 275.978 268.297 260.607 287.86 245.236L287.394 251.291L289.723 243.838C292.052 246.167 293.915 244.304 294.847 242.907C297.642 238.249 301.368 233.591 307.424 229.399C299.971 249.428 291.121 265.265 279.942 278.307L275.284 283.897C275.284 287.158 274.352 291.35 270.626 291.815C268.763 292.281 265.036 290.883 262.242 293.678C260.845 295.541 265.503 299.268 261.776 296.473C258.515 294.144 255.255 296.473 251.528 297.405C248.733 298.337 253.391 301.131 254.323 302.994C255.255 304.857 256.186 306.72 255.721 309.05L250.597 303.46C244.542 306.721 240.815 312.776 235.691 317.434C233.362 319.297 234.294 322.558 234.294 325.352C231.033 325.352 227.307 324.42 225.444 326.284C224.047 328.147 224.512 330.942 224.512 333.737C219.854 333.271 219.388 326.284 215.197 327.681C211.005 328.613 206.347 329.078 202.62 331.408C205.415 336.998 197.962 333.737 198.894 334.668C191.907 330.476 185.852 327.215 178.399 330.01C162.562 324.886 142.999 327.215 128.559 329.079C128.559 326.75 129.025 324.421 128.093 323.955C127.161 326.284 124.367 325.352 124.833 325.352C115.983 319.297 107.133 315.57 97.817 310.447C89.433 311.379 81.514 307.186 79.185 304.857C72.664 298.802 65.211 302.062 59.156 300.665C46.114 297.404 41.456 283.896 40.058 274.581C39.126 269.923 35.4 268.06 34.003 268.525C27.948 248.962 18.632 231.262 11.179 213.096C9.316 208.438 9.782 203.78 9.782 198.656C12.111 199.588 14.44 199.122 13.974 195.862C11.645 180.491 6.056 168.846 0 157.667C3.261 141.83 3.726 123.198 11.179 109.224C17.7 96.648 29.811 90.126 38.195 79.413C40.99 75.687 40.99 70.563 43.785 67.303C53.101 57.987 62.417 48.205 72.664 39.821C77.322 36.095 82.911 39.821 89.898 38.424C92.227 30.04 101.543 22.587 110.393 24.916C114.119 25.848 121.572 16.066 123.901 15.134C127.627 13.737 125.764 18.86 125.764 22.121C134.614 15.134 146.725 11.408 157.904 7.215Z" fill="#804DEE"/>
</svg>
